{
  "accessors": [
    {
      "bufferView": 2,
      "componentType": 5126,
      "count": 4623,
      "max": [
        2.791465997695923,
        -0.7471979856491089,
        2.6963050365448
      ],
      "min": [
        -2.8053689002990723,
        -6.692947864532471,
        -2.647831916809082
      ],
      "type": "VEC3"
    },
    {
      "bufferView": 2,
      "byteOffset": 55476,
      "componentType": 5126,
      "count": 4623,
      "max": [
        0.9993311762809753,
        0.9988524913787842,
        0.9999999403953552
      ],
      "min": [
        -0.9999486804008484,
        -0.9990502595901489,
        -0.9970338940620422
      ],
      "type": "VEC3"
    },
    {
      "bufferView": 1,
      "componentType": 5126,
      "count": 4623,
      "max": [
        0.9996309876441956,
        0.9922369718551636
      ],
      "min": [
        0.00012199999764561653,
        0.0003819999983534217
      ],
      "type": "VEC2"
    },
    {
      "bufferView": 0,
      "componentType": 5125,
      "count": 4623,
      "type": "SCALAR"
    },
    {
      "bufferView": 2,
      "byteOffset": 110952,
      "componentType": 5126,
      "count": 920,
      "max": [
        2.7932510375976563,
        0.02017899975180626,
        2.6963050365448
      ],
      "min": [
        -2.8053689002990723,
        -6.663434028625488,
        -2.647831916809082
      ],
      "type": "VEC3"
    },
    {
      "bufferView": 2,
      "byteOffset": 121992,
      "componentType": 5126,
      "count": 920,
      "max": [
        0.9879542589187622,
        1.0,
        0.9982506632804871
      ],
      "min": [
        -0.999991774559021,
        -0.9909656643867493,
        -1.0
      ],
      "type": "VEC3"
    },
    {
      "bufferView": 1,
      "byteOffset": 36984,
      "componentType": 5126,
      "count": 920,
      "max": [
        0.9994369745254517,
        0.9801049828529358
      ],
      "min": [
        0.00012199999764561653,
        0.00042299999040551484
      ],
      "type": "VEC2"
    },
    {
      "bufferView": 0,
      "byteOffset": 18492,
      "componentType": 5125,
      "count": 1206,
      "type": "SCALAR"
    },
    {
      "bufferView": 2,
      "byteOffset": 133032,
      "componentType": 5126,
      "count": 65532,
      "max": [
        2.7932510375976563,
        0.02017899975180626,
        2.6963050365448
      ],
      "min": [
        -2.8053689002990723,
        -1.121466040611267,
        -2.647831916809082
      ],
      "type": "VEC3"
    },
    {
      "bufferView": 2,
      "byteOffset": 919416,
      "componentType": 5126,
      "count": 65532,
      "max": [
        1.0,
        0.9836491346359253,
        1.0
      ],
      "min": [
        -1.0,
        -0.999999463558197,
        -1.0
      ],
      "type": "VEC3"
    },
    {
      "bufferView": 1,
      "byteOffset": 44344,
      "componentType": 5126,
      "count": 65532,
      "max": [
        0.9996280074119568,
        0.9801049828529358
      ],
      "min": [
        0.00012199999764561653,
        0.000375000003259629
      ],
      "type": "VEC2"
    },
    {
      "bufferView": 0,
      "byteOffset": 23316,
      "componentType": 5125,
      "count": 238893,
      "type": "SCALAR"
    },
    {
      "bufferView": 2,
      "byteOffset": 1705800,
      "componentType": 5126,
      "count": 65532,
      "max": [
        -1.0764579772949219,
        -0.7326949834823608,
        2.6963050365448
      ],
      "min": [
        -2.8053689002990723,
        -1.1574620008468628,
        -2.647831916809082
      ],
      "type": "VEC3"
    },
    {
      "bufferView": 2,
      "byteOffset": 2492184,
      "componentType": 5126,
      "count": 65532,
      "max": [
        0.9998631477355957,
        0.9597824215888977,
        0.9999837875366211
      ],
      "min": [
        -1.0,
        -0.9999988675117493,
        -1.0
      ],
      "type": "VEC3"
    },
    {
      "bufferView": 1,
      "byteOffset": 568600,
      "componentType": 5126,
      "count": 65532,
      "max": [
        0.9996269941329956,
        0.9727780222892761
      ],
      "min": [
        0.00012199999764561653,
        0.00036700000055134296
      ],
      "type": "VEC2"
    },
    {
      "bufferView": 0,
      "byteOffset": 978888,
      "componentType": 5125,
      "count": 185505,
      "type": "SCALAR"
    },
    {
      "bufferView": 2,
      "byteOffset": 3278568,
      "componentType": 5126,
      "count": 65532,
      "max": [
        2.7932510375976563,
        -0.7694829702377319,
        0.8979079723358154
      ],
      "min": [
        -2.8053689002990723,
        -2.769710063934326,
        -2.647831916809082
      ],
      "type": "VEC3"
    },
    {
      "bufferView": 2,
      "byteOffset": 4064952,
      "componentType": 5126,
      "count": 65532,
      "max": [
        0.9999988675117493,
        0.9961296319961548,
        0.9979102611541748
      ],
      "min": [
        -0.9999997615814209,
        -0.999999463558197,
        -1.0
      ],
      "type": "VEC3"
    },
    {
      "bufferView": 1,
      "byteOffset": 1092856,
      "componentType": 5126,
      "count": 65532,
      "max": [
        0.9996150135993958,
        0.999144971370697
      ],
      "min": [
        0.00012199999764561653,
        0.00037200000951997936
      ],
      "type": "VEC2"
    },
    {
      "bufferView": 0,
      "byteOffset": 1720908,
      "componentType": 5125,
      "count": 239184,
      "type": "SCALAR"
    },
    {
      "bufferView": 2,
      "byteOffset": 4851336,
      "componentType": 5126,
      "count": 65534,
      "max": [
        0.728829026222229,
        -0.8377779722213745,
        0.4619370102882385
      ],
      "min": [
        -2.1974740028381348,
        -2.6130309104919434,
        -2.647831916809082
      ],
      "type": "VEC3"
    },
    {
      "bufferView": 2,
      "byteOffset": 5637744,
      "componentType": 5126,
      "count": 65534,
      "max": [
        0.9990297555923462,
        0.9999174475669861,
        0.9999977350234985
      ],
      "min": [
        -0.9999933838844299,
        -0.9999967813491821,
        -1.0
      ],
      "type": "VEC3"
    },
    {
      "bufferView": 1,
      "byteOffset": 1617112,
      "componentType": 5126,
      "count": 65534,
      "max": [
        0.9996299743652344,
        0.9749749898910522
      ],
      "min": [
        0.00012199999764561653,
        0.00036700000055134296
      ],
      "type": "VEC2"
    },
    {
      "bufferView": 0,
      "byteOffset": 2677644,
      "componentType": 5125,
      "count": 188079,
      "type": "SCALAR"
    },
    {
      "bufferView": 2,
      "byteOffset": 6424152,
      "componentType": 5126,
      "count": 65532,
      "max": [
        2.7932510375976563,
        -0.8050299882888794,
        2.6963050365448
      ],
      "min": [
        -1.808279037475586,
        -2.5359649658203125,
        -1.5637719631195068
      ],
      "type": "VEC3"
    },
    {
      "bufferView": 2,
      "byteOffset": 7210536,
      "componentType": 5126,
      "count": 65532,
      "max": [
        1.0,
        0.990239143371582,
        0.9999998807907104
      ],
      "min": [
        -0.9999920129776001,
        -0.9999993443489075,
        -0.9999980926513672
      ],
      "type": "VEC3"
    },
    {
      "bufferView": 1,
      "byteOffset": 2141384,
      "componentType": 5126,
      "count": 65532,
      "max": [
        0.9996200203895569,
        0.9727780222892761
      ],
      "min": [
        0.00012199999764561653,
        0.00037299998803064227
      ],
      "type": "VEC2"
    },
    {
      "bufferView": 0,
      "byteOffset": 3429960,
      "componentType": 5125,
      "count": 229803,
      "type": "SCALAR"
    },
    {
      "bufferView": 2,
      "byteOffset": 7996920,
      "componentType": 5126,
      "count": 65532,
      "max": [
        2.7932510375976563,
        -0.771058976650238,
        2.6963050365448
      ],
      "min": [
        -1.8027260303497314,
        -2.613607883453369,
        -2.647831916809082
      ],
      "type": "VEC3"
    },
    {
      "bufferView": 2,
      "byteOffset": 8783304,
      "componentType": 5126,
      "count": 65532,
      "max": [
        0.9994748830795288,
        0.9900652170181274,
        0.9999973773956299
      ],
      "min": [
        -0.9999997615814209,
        -0.9999974966049194,
        -0.9999971389770508
      ],
      "type": "VEC3"
    },
    {
      "bufferView": 1,
      "byteOffset": 2665640,
      "componentType": 5126,
      "count": 65532,
      "max": [
        0.9996269941329956,
        0.9735109806060791
      ],
      "min": [
        0.00012199999764561653,
        0.00036899998667649925
      ],
      "type": "VEC2"
    },
    {
      "bufferView": 0,
      "byteOffset": 4349172,
      "componentType": 5125,
      "count": 162504,
      "type": "SCALAR"
    },
    {
      "bufferView": 2,
      "byteOffset": 9569688,
      "componentType": 5126,
      "count": 65532,
      "max": [
        2.7932510375976563,
        -0.7972390055656433,
        2.689560890197754
      ],
      "min": [
        0.4913310110569,
        -6.044798851013184,
        -1.52961003780365
      ],
      "type": "VEC3"
    },
    {
      "bufferView": 2,
      "byteOffset": 10356072,
      "componentType": 5126,
      "count": 65532,
      "max": [
        0.9999983310699463,
        0.996918261051178,
        0.9999996423721313
      ],
      "min": [
        -0.9999816417694092,
        -0.9999970197677612,
        -0.9999726414680481
      ],
      "type": "VEC3"
    },
    {
      "bufferView": 1,
      "byteOffset": 3189896,
      "componentType": 5126,
      "count": 65532,
      "max": [
        0.9996079802513123,
        0.994018018245697
      ],
      "min": [
        0.00012199999764561653,
        0.0003800000122282654
      ],
      "type": "VEC2"
    },
    {
      "bufferView": 0,
      "byteOffset": 4999188,
      "componentType": 5125,
      "count": 222930,
      "type": "SCALAR"
    },
    {
      "bufferView": 2,
      "byteOffset": 11142456,
      "componentType": 5126,
      "count": 65532,
      "max": [
        1.6352720260620117,
        -2.5730340480804443,
        0.6763079762458801
      ],
      "min": [
        0.3699420094490051,
        -6.74282693862915,
        -0.5986379981040955
      ],
      "type": "VEC3"
    },
    {
      "bufferView": 2,
      "byteOffset": 11928840,
      "componentType": 5126,
      "count": 65532,
      "max": [
        0.9999915361404419,
        0.9996062517166138,
        0.9999974966049194
      ],
      "min": [
        -0.9999483823776245,
        -0.9999905228614807,
        -0.999976634979248
      ],
      "type": "VEC3"
    },
    {
      "bufferView": 1,
      "byteOffset": 3714152,
      "componentType": 5126,
      "count": 65532,
      "max": [
        0.9996179938316345,
        0.9969480037689209
      ],
      "min": [
        0.00012199999764561653,
        0.00036899998667649925
      ],
      "type": "VEC2"
    },
    {
      "bufferView": 0,
      "byteOffset": 5890908,
      "componentType": 5125,
      "count": 249258,
      "type": "SCALAR"
    },
    {
      "bufferView": 2,
      "byteOffset": 12715224,
      "componentType": 5126,
      "count": 44965,
      "max": [
        1.6360750198364258,
        -0.8092399835586548,
        0.7025370001792908
      ],
      "min": [
        -2.8053689002990723,
        -6.766157150268555,
        -2.647831916809082
      ],
      "type": "VEC3"
    },
    {
      "bufferView": 2,
      "byteOffset": 13254804,
      "componentType": 5126,
      "count": 44965,
      "max": [
        0.9999953508377075,
        0.999721109867096,
        0.9999913573265076
      ],
      "min": [
        -0.9999816417694092,
        -0.9999627470970154,
        -0.9999982118606567
      ],
      "type": "VEC3"
    },
    {
      "bufferView": 1,
      "byteOffset": 4238408,
      "componentType": 5126,
      "count": 44965,
      "max": [
        0.9996200203895569,
        0.9984130263328552
      ],
      "min": [
        0.00012199999764561653,
        0.00036700000055134296
      ],
      "type": "VEC2"
    },
    {
      "bufferView": 0,
      "byteOffset": 6887940,
      "componentType": 5125,
      "count": 133734,
      "type": "SCALAR"
    },
    {
      "bufferView": 2,
      "byteOffset": 13794384,
      "componentType": 5126,
      "count": 55,
      "max": [
        -0.6865940093994141,
        -0.9544379711151123,
        -0.29013800621032715
      ],
      "min": [
        -1.4054759740829468,
        -1.1272289752960205,
        -2.4539709091186523
      ],
      "type": "VEC3"
    },
    {
      "bufferView": 2,
      "byteOffset": 13795044,
      "componentType": 5126,
      "count": 55,
      "max": [
        0.7776339054107666,
        0.5296803116798401,
        0.9451958537101746
      ],
      "min": [
        -0.9723473787307739,
        -0.9643599987030029,
        -0.9969414472579956
      ],
      "type": "VEC3"
    },
    {
      "bufferView": 1,
      "byteOffset": 4598128,
      "componentType": 5126,
      "count": 55,
      "max": [
        0.9957510232925415,
        0.9691159725189209
      ],
      "min": [
        0.026489000767469406,
        0.04267600178718567
      ],
      "type": "VEC2"
    },
    {
      "bufferView": 0,
      "byteOffset": 7422876,
      "componentType": 5125,
      "count": 75,
      "type": "SCALAR"
    }
  ],
  "asset": {
    "extras": {
      "author": "artfletch (https://sketchfab.com/artfletch)",
      "license": "CC-BY-4.0 (http://creativecommons.org/licenses/by/4.0/)",
      "source": "https://sketchfab.com/3d-models/tomb-of-blanche-roosevelt-macchetta-ffb83b1408e745c5b9ec59a6837e4e6a",
      "title": "Tomb Of Blanche Roosevelt Macchetta"
    },
    "generator": "Sketchfab-14.41.0",
    "version": "2.0"
  },
  "bufferViews": [
    {
      "buffer": 0,
      "byteLength": 7423176,
      "name": "floatBufferViews",
      "target": 34963
    },
    {
      "buffer": 0,
      "byteLength": 4598568,
      "byteOffset": 7423176,
      "byteStride": 8,
      "name": "floatBufferViews",
      "target": 34962
    },
    {
      "buffer": 0,
      "byteLength": 13795704,
      "byteOffset": 12021744,
      "byteStride": 12,
      "name": "floatBufferViews",
      "target": 34962
    }
  ],
  "buffers": [
    {
      "byteLength": 25817448,
      "uri": "scene.bin"
    }
  ],
  "extensionsUsed": [
    "KHR_materials_unlit"
  ],
  "images": [
    {
      "uri": "textures/BCBlancheRooseveltMacchetta01_Model_4_u1_v1_baseColor.jpeg"
    }
  ],
  "materials": [
    {
      "doubleSided": true,
      "extensions": {
        "KHR_materials_unlit": {}
      },
      "name": "BCBlancheRooseveltMacchetta01_Model_4_u1_v1",
      "pbrMetallicRoughness": {
        "baseColorTexture": {
          "index": 0
        },
        "metallicFactor": 0.0
      }
    }
  ],
  "meshes": [
    {
      "name": "Object_0",
      "primitives": [
        {
          "attributes": {
            "NORMAL": 1,
            "POSITION": 0,
            "TEXCOORD_0": 2
          },
          "indices": 3,
          "material": 0,
          "mode": 4
        }
      ]
    },
    {
      "name": "Object_1",
      "primitives": [
        {
          "attributes": {
            "NORMAL": 5,
            "POSITION": 4,
            "TEXCOORD_0": 6
          },
          "indices": 7,
          "material": 0,
          "mode": 4
        }
      ]
    },
    {
      "name": "Object_2",
      "primitives": [
        {
          "attributes": {
            "NORMAL": 9,
            "POSITION": 8,
            "TEXCOORD_0": 10
          },
          "indices": 11,
          "material": 0,
          "mode": 4
        }
      ]
    },
    {
      "name": "Object_3",
      "primitives": [
        {
          "attributes": {
            "NORMAL": 13,
            "POSITION": 12,
            "TEXCOORD_0": 14
          },
          "indices": 15,
          "material": 0,
          "mode": 4
        }
      ]
    },
    {
      "name": "Object_4",
      "primitives": [
        {
          "attributes": {
            "NORMAL": 17,
            "POSITION": 16,
            "TEXCOORD_0": 18
          },
          "indices": 19,
          "material": 0,
          "mode": 4
        }
      ]
    },
    {
      "name": "Object_5",
      "primitives": [
        {
          "attributes": {
            "NORMAL": 21,
            "POSITION": 20,
            "TEXCOORD_0": 22
          },
          "indices": 23,
          "material": 0,
          "mode": 4
        }
      ]
    },
    {
      "name": "Object_6",
      "primitives": [
        {
          "attributes": {
            "NORMAL": 25,
            "POSITION": 24,
            "TEXCOORD_0": 26
          },
          "indices": 27,
          "material": 0,
          "mode": 4
        }
      ]
    },
    {
      "name": "Object_7",
      "primitives": [
        {
          "attributes": {
            "NORMAL": 29,
            "POSITION": 28,
            "TEXCOORD_0": 30
          },
          "indices": 31,
          "material": 0,
          "mode": 4
        }
      ]
    },
    {
      "name": "Object_8",
      "primitives": [
        {
          "attributes": {
            "NORMAL": 33,
            "POSITION": 32,
            "TEXCOORD_0": 34
          },
          "indices": 35,
          "material": 0,
          "mode": 4
        }
      ]
    },
    {
      "name": "Object_9",
      "primitives": [
        {
          "attributes": {
            "NORMAL": 37,
            "POSITION": 36,
            "TEXCOORD_0": 38
          },
          "indices": 39,
          "material": 0,
          "mode": 4
        }
      ]
    },
    {
      "name": "Object_10",
      "primitives": [
        {
          "attributes": {
            "NORMAL": 41,
            "POSITION": 40,
            "TEXCOORD_0": 42
          },
          "indices": 43,
          "material": 0,
          "mode": 4
        }
      ]
    },
    {
      "name": "Object_11",
      "primitives": [
        {
          "attributes": {
            "NORMAL": 45,
            "POSITION": 44,
            "TEXCOORD_0": 46
          },
          "indices": 47,
          "material": 0,
          "mode": 4
        }
      ]
    }
  ],
  "nodes": [
    {
      "children": [
        1
      ],
      "matrix": [
        1.0,
        0.0,
        0.0,
        0.0,
        0.0,
        -1.0,
        -4.440892098500626e-16,
        0.0,
        0.0,
        4.440892098500626e-16,
        -1.0,
        0.0,
        0.0,
        0.0,
        0.0,
        1.0
      ],
      "name": "Sketchfab_model"
    },
    {
      "children": [
        2,
        3,
        4,
        5,
        6,
        7,
        8,
        9,
        10,
        11,
        12,
        13
      ],
      "name": "BCBlancheRooseveltMacchetta02.obj.cleaner.materialmerger.gles"
    },
    {
      "mesh": 0,
      "name": "Object_2"
    },
    {
      "mesh": 1,
      "name": "Object_3"
    },
    {
      "mesh": 2,
      "name": "Object_4"
    },
    {
      "mesh": 3,
      "name": "Object_5"
    },
    {
      "mesh": 4,
      "name": "Object_6"
    },
    {
      "mesh": 5,
      "name": "Object_7"
    },
    {
      "mesh": 6,
      "name": "Object_8"
    },
    {
      "mesh": 7,
      "name": "Object_9"
    },
    {
      "mesh": 8,
      "name": "Object_10"
    },
    {
      "mesh": 9,
      "name": "Object_11"
    },
    {
      "mesh": 10,
      "name": "Object_12"
    },
    {
      "mesh": 11,
      "name": "Object_13"
    }
  ],
  "samplers": [
    {
      "magFilter": 9729,
      "minFilter": 9987,
      "wrapS": 10497,
      "wrapT": 10497
    }
  ],
  "scene": 0,
  "scenes": [
    {
      "name": "Sketchfab_Scene",
      "nodes": [
        0
      ]
    }
  ],
  "textures": [
    {
      "sampler": 0,
      "source": 0
    }
  ]
}
